<svg width="158" height="149" viewBox="0 0 158 149" fill="none" xmlns="http://www.w3.org/2000/svg">
<g id="undraw_mobile_ux_re_59hr 1" clip-path="url(#clip0_1_137)" filter="url(#filter0_d_1_137)">
<path id="Path 2389" d="M147.918 47.9036L147.246 47.6711L153.415 28.7097C154.362 25.7992 154.147 22.6206 152.818 19.8731C151.489 17.1256 149.154 15.0343 146.328 14.0593L146.327 14.0591L107.314 0.602558C104.487 -0.372499 101.401 -0.151443 98.7323 1.2171C96.0642 2.58564 94.0332 4.98956 93.0863 7.90002L93.0861 7.90055L59.2454 111.924C58.7766 113.365 58.588 114.887 58.6904 116.404C58.7927 117.92 59.1842 119.4 59.8422 120.761C60.5003 122.121 61.4122 123.335 62.5257 124.332C63.6393 125.33 64.9327 126.092 66.3323 126.575L66.3328 126.575L105.346 140.032C108.172 141.007 111.259 140.786 113.927 139.417C116.595 138.049 118.626 135.645 119.573 132.734L142.854 61.169L143.526 61.4009L147.918 47.9036Z" fill="#3F3D56"/>
<path id="Path 2390" d="M145.827 17.0633L140.735 15.3067C140.777 15.9787 140.657 16.6509 140.388 17.2643C140.118 17.8776 139.705 18.4132 139.187 18.8238C138.669 19.2345 138.06 19.5076 137.416 19.6191C136.771 19.7306 136.109 19.6771 135.489 19.4632L113.139 11.7538C112.519 11.5397 111.96 11.172 111.511 10.6829C111.061 10.1939 110.735 9.5985 110.562 8.94929C110.389 8.30007 110.373 7.61692 110.516 6.95999C110.66 6.30306 110.958 5.69252 111.384 5.18213L106.628 3.54141C104.517 2.81331 102.212 2.97847 100.219 4.00056C98.2267 5.02264 96.71 6.81793 96.0029 8.9915L62.2106 112.862C61.5035 115.036 61.6639 117.41 62.6564 119.462C63.649 121.513 65.3925 123.075 67.5033 123.803L106.704 137.325C108.815 138.053 111.12 137.888 113.113 136.866C115.105 135.844 116.622 134.049 117.329 131.875L151.12 28.0042C151.828 25.8306 151.667 23.4568 150.674 21.4049C149.682 19.3531 147.938 17.7914 145.827 17.0633Z" fill="white"/>
<path id="Path 2391" d="M136.024 51.9109L94.1895 37.4803C93.9842 37.4092 93.8146 37.2572 93.7181 37.0575C93.6215 36.8579 93.6058 36.6269 93.6743 36.4154L97.1507 25.7291C97.2198 25.5177 97.3674 25.3431 97.5613 25.2437C97.7552 25.1442 97.9795 25.128 98.185 25.1987L140.02 39.6294C140.225 39.7005 140.395 39.8526 140.491 40.0522C140.588 40.2519 140.604 40.4828 140.535 40.6944L137.059 51.3803C136.989 51.5917 136.842 51.7663 136.648 51.8657C136.454 51.9652 136.23 51.9814 136.024 51.9108L136.024 51.9109ZM98.0811 25.5181C97.9578 25.4757 97.8232 25.4855 97.7069 25.5452C97.5906 25.6048 97.502 25.7096 97.4606 25.8365L93.9842 36.5223C93.9431 36.6493 93.9525 36.7878 94.0105 36.9076C94.0685 37.0274 94.1702 37.1186 94.2934 37.1612L136.128 51.592C136.251 51.6344 136.386 51.6247 136.502 51.565C136.619 51.5053 136.707 51.4005 136.748 51.2737L140.225 40.5884C140.267 40.4614 140.257 40.3228 140.199 40.2031C140.141 40.0833 140.039 39.9921 139.916 39.9494L98.0811 25.5181Z" fill="#3F3D56"/>
<path id="Path 2392" d="M122.27 94.1913L80.4349 79.7607C80.2296 79.6896 80.0601 79.5375 79.9635 79.3379C79.8669 79.1382 79.8512 78.9073 79.9198 78.6957L86.3545 58.9159C86.4236 58.7045 86.5713 58.53 86.7651 58.4305C86.959 58.3311 87.1833 58.3149 87.3888 58.3855L129.224 72.8157C129.429 72.8868 129.598 73.0389 129.695 73.2385C129.792 73.4382 129.807 73.6691 129.739 73.8807L123.304 93.6608C123.235 93.8722 123.087 94.0467 122.893 94.1462C122.699 94.2456 122.475 94.2618 122.27 94.1913ZM87.2849 58.7044C87.1616 58.662 87.027 58.6717 86.9107 58.7314C86.7944 58.7911 86.7058 58.8959 86.6644 59.0227L80.2296 78.8025C80.1885 78.9294 80.1979 79.068 80.2559 79.1878C80.3139 79.3076 80.4156 79.3988 80.5388 79.4414L122.374 93.8722C122.497 93.9145 122.631 93.9048 122.748 93.8451C122.864 93.7854 122.953 93.6807 122.994 93.5538L129.429 73.7737C129.47 73.6468 129.461 73.5082 129.403 73.3884C129.345 73.2686 129.243 73.1774 129.12 73.1348L87.2849 58.7044Z" fill="#3F3D56"/>
<path id="Path 2393" d="M130.316 68.3972L111.723 61.9827C111.518 61.9116 111.348 61.7595 111.252 61.5599C111.155 61.3602 111.139 61.1293 111.208 60.9177L114.684 50.2319C114.753 50.0204 114.901 49.8459 115.095 49.7464C115.289 49.647 115.513 49.6308 115.719 49.7014L134.312 56.1157C134.517 56.1868 134.687 56.3388 134.783 56.5385C134.88 56.7381 134.895 56.9691 134.827 57.1806L131.351 67.8665C131.282 68.0781 131.134 68.2529 130.94 68.3524C130.746 68.4519 130.521 68.468 130.316 68.3972ZM115.615 50.0212C115.491 49.9788 115.357 49.9886 115.24 50.0483C115.124 50.1079 115.036 50.2127 114.994 50.3396L111.518 61.0254C111.477 61.1524 111.486 61.2909 111.544 61.4107C111.602 61.5305 111.704 61.6217 111.827 61.6643L130.42 68.0779C130.544 68.1203 130.678 68.1105 130.794 68.0508C130.911 67.9912 130.999 67.8864 131.041 67.7595L134.517 57.0737C134.558 56.9467 134.549 56.8082 134.491 56.6884C134.433 56.5686 134.331 56.4774 134.208 56.4348L115.615 50.0212Z" fill="#E6E6E6"/>
<path id="Path 2394" d="M90.6197 112.021L72.0271 105.607C71.8218 105.536 71.6522 105.384 71.5557 105.185C71.4591 104.985 71.4433 104.754 71.5119 104.543L77.9986 84.6029C78.0677 84.3914 78.2154 84.2169 78.4092 84.1174C78.6031 84.018 78.8274 84.0018 79.0329 84.0724L97.6258 90.4859C97.8311 90.557 98.0007 90.7091 98.0973 90.9087C98.1938 91.1084 98.2096 91.3393 98.141 91.5509L91.6539 111.491C91.5849 111.702 91.4372 111.877 91.2433 111.976C91.0494 112.075 90.8251 112.092 90.6197 112.021ZM78.9285 84.3913C78.8052 84.3489 78.6706 84.3587 78.5543 84.4184C78.438 84.478 78.3494 84.5828 78.308 84.7097L71.8211 104.649C71.7799 104.776 71.7894 104.915 71.8474 105.035C71.9053 105.154 72.0071 105.246 72.1303 105.288L90.7236 111.702C90.8468 111.744 90.9814 111.735 91.0977 111.675C91.2141 111.615 91.3026 111.51 91.344 111.384L97.8308 91.4439C97.8719 91.317 97.8624 91.1784 97.8045 91.0587C97.7465 90.9389 97.6448 90.8477 97.5216 90.805L78.9285 84.3913Z" fill="#E6E6E6"/>
<path id="Path 2395" d="M113.551 119.931L94.958 113.518C94.7527 113.446 94.5831 113.294 94.4866 113.095C94.39 112.895 94.3743 112.664 94.4428 112.453L100.93 92.5129C100.999 92.3015 101.146 92.1269 101.34 92.0275C101.534 91.928 101.758 91.9118 101.964 91.9825L120.557 98.3962C120.762 98.4673 120.932 98.6193 121.029 98.819C121.125 99.0186 121.141 99.2496 121.072 99.4612L114.586 119.401C114.517 119.612 114.369 119.787 114.175 119.886C113.981 119.986 113.757 120.002 113.551 119.931ZM101.86 92.3015C101.737 92.2592 101.602 92.2689 101.486 92.3286C101.37 92.3883 101.281 92.493 101.24 92.6199L94.7527 112.56C94.7116 112.687 94.721 112.825 94.779 112.945C94.8369 113.065 94.9387 113.156 95.0619 113.198L113.655 119.612C113.778 119.655 113.913 119.645 114.029 119.585C114.146 119.526 114.234 119.421 114.276 119.294L120.762 99.3544C120.804 99.2274 120.794 99.0889 120.736 98.9691C120.678 98.8493 120.576 98.7581 120.453 98.7155L101.86 92.3015Z" fill="#E6E6E6"/>
<path id="Ellipse 477" d="M91.2997 70.9544C93.1378 70.9544 94.6279 69.4201 94.6279 67.5273C94.6279 65.6346 93.1378 64.1002 91.2997 64.1002C89.4616 64.1002 87.9715 65.6346 87.9715 67.5273C87.9715 69.4201 89.4616 70.9544 91.2997 70.9544Z" fill="#63E9FF"/>
<path id="Path 2396" d="M99.2922 67.8751C99.1527 67.827 99.0004 67.8379 98.8687 67.9054C98.737 67.973 98.6367 68.0916 98.59 68.2353C98.5433 68.3789 98.5539 68.5358 98.6195 68.6714C98.6851 68.807 98.8003 68.9102 98.9398 68.9583L123.735 77.5113C123.804 77.5352 123.877 77.5447 123.95 77.5395C124.023 77.5343 124.094 77.5144 124.159 77.481C124.224 77.4476 124.282 77.4012 124.33 77.3446C124.378 77.288 124.414 77.2223 124.437 77.1512C124.461 77.08 124.47 77.0049 124.465 76.9301C124.46 76.8553 124.441 76.7822 124.408 76.715C124.376 76.6479 124.331 76.588 124.276 76.5388C124.221 76.4895 124.157 76.4519 124.088 76.4281L99.2922 67.8751Z" fill="#E6E6E6"/>
<path id="Path 2397" d="M98.2357 71.1246C98.1666 71.1008 98.0937 71.0912 98.021 71.0964C97.9483 71.1016 97.8774 71.1215 97.8122 71.1549C97.747 71.1884 97.6888 71.2347 97.641 71.2913C97.5932 71.3479 97.5566 71.4136 97.5335 71.4847C97.5104 71.5559 97.501 71.631 97.5061 71.7058C97.5112 71.7807 97.5305 71.8537 97.5629 71.9209C97.5954 71.988 97.6404 72.0479 97.6954 72.0971C97.7504 72.1464 97.8142 72.184 97.8833 72.2078L108.553 75.8883C108.622 75.9121 108.695 75.9217 108.768 75.9165C108.84 75.9113 108.911 75.8914 108.976 75.858C109.042 75.8245 109.1 75.7782 109.148 75.7216C109.195 75.665 109.232 75.5993 109.255 75.5281C109.278 75.457 109.287 75.3819 109.282 75.3071C109.277 75.2322 109.258 75.1592 109.226 75.092C109.193 75.0249 109.148 74.965 109.093 74.9157C109.038 74.8665 108.974 74.8289 108.905 74.8051L98.2357 71.1246Z" fill="#E6E6E6"/>
<path id="Path 2398" d="M86.8366 72.9707C86.4365 72.8327 86.0319 72.9634 85.9348 73.2628C85.8377 73.5621 86.0842 73.9166 86.4844 74.0546L120.694 85.8553C121.095 85.9933 121.499 85.8626 121.596 85.5632C121.693 85.2639 121.447 84.9094 121.047 84.7713L86.8366 72.9707Z" fill="#E6E6E6"/>
<path id="Path 2399" d="M85.7795 76.2204C85.3794 76.0824 84.9748 76.2131 84.8777 76.5124C84.7805 76.8118 85.0271 77.1663 85.4272 77.3043L119.637 89.105C120.037 89.243 120.442 89.1123 120.539 88.8129C120.636 88.5135 120.39 88.159 119.99 88.021L85.7795 76.2204Z" fill="#E6E6E6"/>
<path id="Ellipse 478" d="M102.821 36.599C104.659 36.599 106.149 35.0646 106.149 33.1719C106.149 31.2791 104.659 29.7448 102.821 29.7448C100.983 29.7448 99.4929 31.2791 99.4929 33.1719C99.4929 35.0646 100.983 36.599 102.821 36.599Z" fill="#63E9FF"/>
<path id="Path 2400" d="M110.814 33.5195C110.745 33.4956 110.672 33.486 110.599 33.4912C110.527 33.4964 110.456 33.5163 110.39 33.5498C110.325 33.5832 110.267 33.6296 110.219 33.6862C110.171 33.7428 110.135 33.8085 110.112 33.8796C110.089 33.9507 110.079 34.0259 110.084 34.1007C110.089 34.1755 110.109 34.2486 110.141 34.3157C110.174 34.3829 110.219 34.4428 110.274 34.492C110.329 34.5412 110.392 34.5789 110.462 34.6027L135.257 43.1557C135.326 43.1795 135.399 43.1891 135.472 43.1839C135.544 43.1787 135.615 43.1588 135.681 43.1254C135.746 43.0919 135.804 43.0456 135.852 42.989C135.9 42.9324 135.936 42.8666 135.959 42.7955C135.982 42.7244 135.992 42.6493 135.987 42.5744C135.982 42.4996 135.962 42.4265 135.93 42.3594C135.897 42.2922 135.852 42.2324 135.797 42.1831C135.742 42.1339 135.679 42.0963 135.609 42.0725L110.814 33.5195Z" fill="#E6E6E6"/>
<path id="Path 2401" d="M109.757 36.7691C109.688 36.7453 109.615 36.7357 109.542 36.7409C109.47 36.7461 109.399 36.766 109.333 36.7994C109.268 36.8329 109.21 36.8792 109.162 36.9358C109.114 36.9924 109.078 37.0582 109.055 37.1293C109.032 37.2004 109.022 37.2755 109.027 37.3504C109.032 37.4252 109.052 37.4983 109.084 37.5654C109.117 37.6325 109.162 37.6924 109.217 37.7417C109.272 37.7909 109.335 37.8285 109.404 37.8523L120.074 41.5328C120.143 41.5567 120.216 41.5662 120.289 41.561C120.361 41.5558 120.432 41.5359 120.498 41.5025C120.563 41.4691 120.621 41.4227 120.669 41.3661C120.717 41.3095 120.753 41.2438 120.776 41.1727C120.799 41.1015 120.809 41.0264 120.804 40.9516C120.799 40.8768 120.779 40.8037 120.747 40.7365C120.714 40.6694 120.669 40.6095 120.614 40.5603C120.559 40.511 120.496 40.4734 120.426 40.4496L109.757 36.7691Z" fill="#E6E6E6"/>
<path id="Path 2402" d="M107.368 60.4833L89.9257 54.4667L96.412 48.5616C96.5283 48.4557 96.6695 48.3832 96.8216 48.3514C96.9737 48.3195 97.1312 48.3295 97.2784 48.3802C97.4255 48.431 97.5571 48.5207 97.6599 48.6405C97.7627 48.7602 97.8331 48.9057 97.8639 49.0623L98.6 52.7946L103.311 48.5048C103.457 48.3723 103.634 48.2816 103.824 48.2418C104.015 48.202 104.212 48.2145 104.396 48.278C104.58 48.3416 104.745 48.4539 104.874 48.6038C105.002 48.7537 105.09 48.9358 105.129 49.1318L107.368 60.4833ZM90.5662 54.3327L106.935 59.9791L104.809 49.1996C104.781 49.0614 104.719 48.9332 104.629 48.8276C104.538 48.722 104.422 48.6429 104.292 48.5981C104.162 48.5533 104.023 48.5445 103.889 48.5726C103.755 48.6006 103.63 48.6645 103.528 48.7578L98.3924 53.433L97.5436 49.1295C97.5242 49.0308 97.4798 48.9391 97.4151 48.8636C97.3503 48.7882 97.2674 48.7316 97.1746 48.6996C97.0819 48.6676 96.9826 48.6613 96.8868 48.6814C96.7909 48.7014 96.7019 48.7471 96.6287 48.8138L90.5662 54.3327Z" fill="#E6E6E6"/>
<path id="Path 2404" d="M107.385 60.4869L88.7916 54.0733C88.5863 54.0023 88.4168 53.8502 88.3202 53.6505C88.2236 53.4509 88.2079 53.22 88.2764 53.0084L91.7527 42.3225C91.8217 42.1111 91.9694 41.9365 92.1633 41.8371C92.3571 41.7376 92.5814 41.7214 92.7869 41.792L111.38 48.2058C111.586 48.2769 111.755 48.4289 111.852 48.6286C111.948 48.8282 111.964 49.0592 111.895 49.2708L108.419 59.9564C108.35 60.1678 108.202 60.3424 108.008 60.4419C107.814 60.5413 107.59 60.5575 107.385 60.4869ZM92.6832 42.1109C92.5599 42.0686 92.4253 42.0783 92.309 42.138C92.1927 42.1977 92.1041 42.3024 92.0627 42.4293L88.5865 53.1152C88.5454 53.2421 88.5548 53.3807 88.6128 53.5005C88.6707 53.6202 88.7725 53.7115 88.8957 53.7541L107.489 60.1678C107.612 60.2102 107.747 60.2005 107.863 60.1408C107.979 60.0811 108.068 59.9763 108.109 59.8495L111.586 49.1636C111.627 49.0367 111.618 48.8981 111.56 48.7783C111.502 48.6585 111.4 48.5673 111.277 48.5247L92.6832 42.1109Z" fill="#E6E6E6"/>
<path id="Path 2405" d="M81.6564 89.5508C81.5873 89.5268 81.5143 89.5171 81.4416 89.5223C81.3688 89.5274 81.2978 89.5473 81.2325 89.5807C81.1672 89.6141 81.109 89.6605 81.0611 89.7171C81.0133 89.7737 80.9767 89.8395 80.9535 89.9107C80.9304 89.9819 80.9211 90.0571 80.9262 90.1319C80.9312 90.2068 80.9506 90.28 80.9832 90.3471C81.0157 90.4143 81.0608 90.4742 81.1158 90.5235C81.1709 90.5727 81.2348 90.6102 81.304 90.634L91.9736 94.3145C92.113 94.3624 92.2652 94.3513 92.3967 94.2837C92.5283 94.2162 92.6284 94.0976 92.6751 93.9541C92.7218 93.8106 92.7112 93.6538 92.6458 93.5183C92.5803 93.3828 92.4653 93.2795 92.326 93.2312L81.6564 89.5508Z" fill="#E6E6E6"/>
<path id="Path 2406" d="M80.6183 92.7416C80.5492 92.7177 80.4762 92.708 80.4034 92.7132C80.3307 92.7183 80.2596 92.7381 80.1944 92.7716C80.1291 92.805 80.0708 92.8514 80.023 92.908C79.9751 92.9646 79.9386 93.0304 79.9154 93.1016C79.8922 93.1728 79.8829 93.2479 79.888 93.3228C79.8931 93.3977 79.9125 93.4709 79.945 93.538C79.9776 93.6052 80.0226 93.6651 80.0777 93.7143C80.1327 93.7636 80.1967 93.8011 80.2658 93.8249L90.9356 97.5061C91.075 97.5537 91.227 97.5425 91.3583 97.4749C91.4897 97.4073 91.5896 97.2888 91.6363 97.1454C91.6829 97.002 91.6725 96.8455 91.6072 96.71C91.5419 96.5746 91.4271 96.4713 91.288 96.4229L80.6183 92.7416Z" fill="#E6E6E6"/>
<path id="Path 2408" d="M110.927 114.453C111.067 114.501 111.219 114.49 111.35 114.422C111.482 114.354 111.582 114.236 111.629 114.092C111.675 113.949 111.665 113.792 111.599 113.657C111.534 113.521 111.419 113.418 111.28 113.37L100.61 109.689C100.471 109.641 100.318 109.652 100.187 109.72C100.055 109.787 99.9551 109.906 99.9084 110.049C99.8617 110.193 99.8723 110.35 99.9377 110.485C100.003 110.621 100.118 110.724 100.258 110.772L110.927 114.453Z" fill="#E6E6E6"/>
<path id="Path 2409" d="M111.965 111.262C112.034 111.286 112.107 111.295 112.18 111.29C112.253 111.285 112.324 111.265 112.389 111.232C112.454 111.198 112.513 111.152 112.56 111.095C112.608 111.039 112.645 110.973 112.668 110.902C112.691 110.831 112.701 110.755 112.695 110.68C112.69 110.606 112.671 110.532 112.638 110.465C112.606 110.398 112.561 110.338 112.506 110.289C112.451 110.24 112.387 110.202 112.318 110.178L101.648 106.498C101.579 106.474 101.506 106.464 101.433 106.469C101.36 106.475 101.289 106.494 101.224 106.528C101.159 106.561 101.101 106.608 101.053 106.664C101.005 106.721 100.968 106.787 100.945 106.858C100.922 106.929 100.913 107.004 100.918 107.079C100.923 107.154 100.942 107.227 100.975 107.294C101.007 107.362 101.052 107.421 101.107 107.471C101.163 107.52 101.226 107.557 101.296 107.581L111.965 111.262Z" fill="#E6E6E6"/>
<path id="Path 2409_2" d="M128.629 60.1489C128.698 60.1728 128.771 60.1825 128.844 60.1773C128.917 60.1722 128.988 60.1524 129.053 60.1189C129.118 60.0855 129.177 60.0391 129.224 59.9825C129.272 59.9259 129.309 59.8601 129.332 59.7889C129.355 59.7177 129.365 59.6426 129.359 59.5677C129.354 59.4928 129.335 59.4196 129.302 59.3525C129.27 59.2853 129.225 59.2254 129.17 59.1762C129.115 59.1269 129.051 59.0894 128.982 59.0656L118.312 55.3851C118.243 55.3612 118.17 55.3515 118.097 55.3567C118.024 55.3618 117.953 55.3816 117.888 55.4151C117.823 55.4485 117.765 55.4948 117.717 55.5515C117.669 55.6081 117.632 55.6739 117.609 55.7451C117.586 55.8163 117.577 55.8914 117.582 55.9663C117.587 56.0412 117.606 56.1143 117.639 56.1815C117.671 56.2487 117.716 56.3086 117.771 56.3578C117.827 56.4071 117.89 56.4446 117.96 56.4684L128.629 60.1489Z" fill="#E6E6E6"/>
<path id="Path 2409_3" d="M127.743 62.7045C127.812 62.7284 127.885 62.7381 127.958 62.733C128.03 62.7278 128.101 62.708 128.167 62.6746C128.232 62.6411 128.29 62.5948 128.338 62.5382C128.386 62.4815 128.423 62.4157 128.446 62.3446C128.469 62.2734 128.478 62.1982 128.473 62.1233C128.468 62.0484 128.449 61.9753 128.416 61.9081C128.384 61.8409 128.338 61.781 128.283 61.7318C128.228 61.6826 128.164 61.645 128.095 61.6213L117.426 57.9408C117.357 57.9168 117.284 57.9072 117.211 57.9123C117.138 57.9174 117.067 57.9373 117.002 57.9707C116.937 58.0041 116.878 58.0505 116.83 58.1071C116.783 58.1637 116.746 58.2295 116.723 58.3007C116.7 58.3719 116.69 58.4471 116.695 58.522C116.701 58.5969 116.72 58.67 116.752 58.7372C116.785 58.8043 116.83 58.8642 116.885 58.9135C116.94 58.9627 117.004 59.0002 117.073 59.024L127.743 62.7045Z" fill="#E6E6E6"/>
<g id="Group 161">
<path id="Ellipse 476" d="M38.3899 56.4118C41.5063 56.4118 44.0326 53.8104 44.0326 50.6013C44.0326 47.3923 41.5063 44.7909 38.3899 44.7909C35.2735 44.7909 32.7472 47.3923 32.7472 50.6013C32.7472 53.8104 35.2735 56.4118 38.3899 56.4118Z" fill="#9F616A"/>
<path id="Path 2387" d="M35.1282 51.3202C35.5755 51.2926 36.0123 51.448 36.4565 51.5091C38.0458 51.7264 39.6989 50.5389 40.0499 48.9281C40.0781 48.7136 40.1402 48.5053 40.2338 48.3115C40.4784 47.9002 41.0354 47.8219 41.4945 47.9165C41.9537 48.011 42.3891 48.2323 42.8567 48.2576C43.5788 48.2967 44.2719 47.8389 44.6568 47.2085C45.0204 46.5583 45.1751 45.8062 45.0986 45.06L44.7524 45.434C44.6117 45.1276 44.5574 44.7867 44.5956 44.4501C44.4122 44.3998 44.2193 44.3988 44.0354 44.4473C43.8515 44.4957 43.6827 44.592 43.5453 44.7268C43.24 44.7602 43.4705 44.144 43.2439 43.9309C43.1336 43.8612 43.0021 43.8359 42.8748 43.8599C42.2255 43.8663 41.7002 43.355 41.1886 42.9434C40.302 42.2317 39.2654 41.7447 38.1623 41.5219C37.4291 41.3746 36.6494 41.351 35.9541 41.6314C35.3928 41.8909 34.8862 42.2609 34.4629 42.7207C33.3742 43.7977 32.4102 45.0651 31.9574 46.5486C31.5892 47.7638 31.5788 49.0641 31.9275 50.2854C32.1099 50.9195 32.66 53.0916 33.4652 53.1422C34.4762 53.2063 33.869 51.3976 35.1282 51.3202Z" fill="#2F2E41"/>
<path id="Path 111" d="M27.3144 97.1224C27.6273 96.9014 27.8894 96.6125 28.0821 96.276C28.2749 95.9395 28.3937 95.5636 28.4301 95.1747C28.4665 94.7858 28.4196 94.3934 28.2928 94.0252C28.166 93.6569 27.9624 93.3218 27.6962 93.0434L28.703 69.9026L23.5774 70.495L23.8752 93.1307C23.4505 93.6221 23.2156 94.2569 23.2151 94.9148C23.2146 95.5727 23.4485 96.2079 23.8724 96.7001C24.2964 97.1922 24.8809 97.5071 25.5153 97.5851C26.1497 97.6631 26.7898 97.4987 27.3144 97.1231V97.1224Z" fill="#A0616A"/>
<path id="Path 112" d="M36.6649 136.295L39.5821 136.823L42.4653 125.487L38.6431 124.707L36.6649 136.295Z" fill="#A0616A"/>
<path id="Path 113" d="M44.7116 140.635L35.5422 138.967L36.168 135.319L41.7947 136.343C42.7343 136.513 43.5695 137.062 44.1165 137.867C44.6635 138.672 44.8775 139.667 44.7116 140.635Z" fill="#2F2E41"/>
<path id="Path 114" d="M28.6578 137.798H31.6195L33.0285 126.034H28.6572L28.6578 137.798Z" fill="#A0616A"/>
<path id="Path 115" d="M37.3292 140.63H28.0203V136.927H33.7326C34.6865 136.927 35.6013 137.317 36.2758 138.012C36.9503 138.706 37.3292 139.648 37.3292 140.63Z" fill="#2F2E41"/>
<path id="Path 116" d="M41.0158 133.582C40.9695 133.582 40.9234 133.579 40.8775 133.573L37.3912 133.278C37.0806 133.24 36.7972 133.077 36.6034 132.825C36.4096 132.572 36.3212 132.25 36.3577 131.93C36.36 131.91 36.3628 131.89 36.3661 131.87L39.828 114.286L37.6528 102.475C37.6352 102.379 37.5844 102.293 37.5098 102.233C37.4353 102.172 37.3419 102.141 37.2471 102.146C37.1523 102.151 37.0624 102.191 36.994 102.259C36.9256 102.327 36.8834 102.418 36.8751 102.515L33.6719 132.525C33.642 132.841 33.4941 133.133 33.2592 133.339C33.0244 133.545 32.7211 133.649 32.4132 133.629L29.1288 133.503C28.841 133.482 28.5706 133.353 28.3687 133.141C28.1668 132.929 28.0473 132.648 28.0329 132.351L28.2953 96.087L45.3236 93.8953L46.5131 112.813L46.5083 112.833L42.1615 132.654C42.0989 132.918 41.952 133.154 41.7443 133.322C41.5366 133.49 41.28 133.581 41.0158 133.582Z" fill="#2F2E41"/>
<path id="Path 117" d="M39.5004 98.8467C38.5721 98.8525 37.6616 98.5844 36.8767 98.074C34.0023 96.2241 30.7376 96.9594 29.0473 97.5629C28.8795 97.6234 28.7007 97.644 28.5241 97.6233C28.3475 97.6026 28.1778 97.5411 28.0276 97.4433C27.8791 97.3473 27.7536 97.218 27.6606 97.0649C27.5675 96.9119 27.5093 96.7392 27.4902 96.5598L24.4171 68.2915C23.902 63.5553 26.6726 59.1025 31.0049 57.7038C31.1677 57.6513 31.3331 57.6014 31.5013 57.5543C32.8495 57.178 34.2614 57.1104 35.6376 57.3564C37.0139 57.6024 38.3211 58.156 39.4672 58.9782C40.6348 59.8093 41.6113 60.8937 42.328 62.1553C43.0447 63.4168 43.4841 64.8247 43.6155 66.28L46.2037 94.7371C46.2212 94.9214 46.1969 95.1074 46.1327 95.2803C46.0685 95.4533 45.9662 95.6086 45.8338 95.7339C44.9266 96.5981 42.2939 98.8464 39.5004 98.8467Z" fill="#63E9FF"/>
<path id="Path 118" d="M30.1407 74.3531L23.206 73.5681C23.0087 73.5458 22.8184 73.4799 22.648 73.375C22.4777 73.2701 22.3313 73.1286 22.2188 72.9602C22.1064 72.7918 22.0305 72.6004 21.9963 72.399C21.9622 72.1977 21.9705 71.9911 22.0209 71.7934L23.786 64.8658C23.8393 64.3497 23.9908 63.8494 24.232 63.3936C24.4731 62.9378 24.7991 62.5354 25.1914 62.2094C25.5836 61.8834 26.0344 61.6402 26.5179 61.4937C27.0015 61.3472 27.5084 61.3002 28.0095 61.3555C28.5107 61.4108 28.9964 61.5673 29.4389 61.816C29.8813 62.0647 30.2718 62.4007 30.5881 62.8049C30.9043 63.2091 31.1401 63.6735 31.282 64.1715C31.4239 64.6696 31.469 65.1915 31.4149 65.7076C31.4134 65.7225 31.4117 65.7374 31.41 65.7523L31.672 72.886C31.6794 73.0902 31.644 73.2937 31.5682 73.4826C31.4924 73.6715 31.3779 73.8413 31.2326 73.9806C31.0873 74.1198 30.9145 74.2251 30.7261 74.2894C30.5377 74.3537 30.338 74.3754 30.1407 74.3531Z" fill="#63E9FF"/>
<path id="Path 119" d="M46.1748 96.1315C46.4597 95.8734 46.6861 95.5541 46.8381 95.1961C46.9901 94.8381 47.0641 94.4501 47.0547 94.0595C47.0454 93.6689 46.953 93.2852 46.784 92.9353C46.615 92.5855 46.3736 92.278 46.0768 92.0346L44.368 68.9377L39.3456 70.102L42.2939 92.5949C41.9299 93.1355 41.7712 93.7947 41.8477 94.4477C41.9242 95.1008 42.2307 95.7022 42.7091 96.1381C43.1874 96.5741 43.8045 96.8141 44.4432 96.8129C45.082 96.8117 45.6982 96.5693 46.175 96.1315L46.1748 96.1315Z" fill="#A0616A"/>
<path id="Path 120" d="M37.4199 72.9011C37.2744 72.7619 37.1598 72.5919 37.084 72.4029C37.0082 72.2139 36.9729 72.0102 36.9806 71.8059L37.2426 64.6722C37.1346 63.6343 37.43 62.5947 38.064 61.7804C38.6981 60.966 39.6194 60.4432 40.6266 60.3261C41.6338 60.209 42.6451 60.5071 43.4396 61.1554C44.234 61.8036 44.747 62.7492 44.8666 63.7857L46.6317 70.7133C46.682 70.911 46.6904 71.1176 46.6563 71.3189C46.6221 71.5203 46.5462 71.7117 46.4338 71.8801C46.3213 72.0485 46.1749 72.19 46.0046 72.2949C45.8342 72.3998 45.6439 72.4657 45.4466 72.488L38.5119 73.273C38.3146 73.2954 38.1148 73.2738 37.9264 73.2095C37.7379 73.1452 37.5651 73.0398 37.4199 72.9004V72.9011Z" fill="#63E9FF"/>
</g>
<path id="Rectangle 256" d="M134.869 140.635H4V141H134.869V140.635Z" fill="#CACACA"/>
</g>
<defs>
<filter id="filter0_d_1_137" x="0" y="0" width="158" height="149" filterUnits="userSpaceOnUse" color-interpolation-filters="sRGB">
<feFlood flood-opacity="0" result="BackgroundImageFix"/>
<feColorMatrix in="SourceAlpha" type="matrix" values="0 0 0 0 0 0 0 0 0 0 0 0 0 0 0 0 0 0 127 0" result="hardAlpha"/>
<feOffset dy="4"/>
<feGaussianBlur stdDeviation="2"/>
<feComposite in2="hardAlpha" operator="out"/>
<feColorMatrix type="matrix" values="0 0 0 0 0 0 0 0 0 0 0 0 0 0 0 0 0 0 0.25 0"/>
<feBlend mode="normal" in2="BackgroundImageFix" result="effect1_dropShadow_1_137"/>
<feBlend mode="normal" in="SourceGraphic" in2="effect1_dropShadow_1_137" result="shape"/>
</filter>
<clipPath id="clip0_1_137">
<rect width="150" height="141" fill="white" transform="translate(4)"/>
</clipPath>
</defs>
</svg>
